<?xml version="1.0" encoding="UTF-8" standalone="no"?>
<svg
   xmlns:dc="http://purl.org/dc/elements/1.1/"
   xmlns:cc="http://creativecommons.org/ns#"
   xmlns:rdf="http://www.w3.org/1999/02/22-rdf-syntax-ns#"
   xmlns:svg="http://www.w3.org/2000/svg"
   xmlns="http://www.w3.org/2000/svg"
   viewBox="0 0 1066.6667 745.33331"
   height="745.33331"
   width="1066.6667"
   xml:space="preserve"
   id="svg2"
   version="1.1"><metadata
     id="metadata8"><rdf:RDF><cc:Work
         rdf:about=""><dc:format>image/svg+xml</dc:format><dc:type
           rdf:resource="http://purl.org/dc/dcmitype/StillImage" /></cc:Work></rdf:RDF></metadata><defs
     id="defs6"><clipPath
       id="clipPath18"
       clipPathUnits="userSpaceOnUse"><path
         id="path16"
         d="M 0,559 H 800 V 0 H 0 Z" /></clipPath></defs><g
     transform="matrix(1.3333333,0,0,-1.3333333,0,745.33333)"
     id="g10"><g
       id="g12"><g
         clip-path="url(#clipPath18)"
         id="g14"><g
           transform="translate(456.5801,441.8799)"
           id="g20"><path
             id="path22"
             style="fill:#f69522;fill-opacity:1;fill-rule:nonzero;stroke:none"
             d="M 0,0 C 8.07,5.21 16.78,10.58 26.73,10.53 18.74,6.48 10.49,2.88 3.01,-2.07 c -20.7,-13.29 -36.75,-33.47 -45.39,-56.47 -4.24,-10.79 -6.25,-22.24 -8.29,-33.6 -0.99,-5.74 -3.51,-11.35 -7.84,-15.35 -7.83,-7.59 -21.01,-9.22 -30.19,-3.13 -6.3,4.13 -9.28,11.91 -9.18,19.24 -0.22,13.27 7.11,25.14 15.1,35.19 16.14,19.39 37.49,34.18 60.57,44.14 -14,-9.71 -19.39,-27.01 -22.43,-42.96 C -35.66,-32.76 -19.99,-13.29 0,0" /></g><g
           transform="translate(525.02,449.6802)"
           id="g24"><path
             id="path26"
             style="fill:#f69522;fill-opacity:1;fill-rule:nonzero;stroke:none"
             d="m 0,0 c 7.84,0.9 15.72,1.82 23.63,1.55 -18.88,-2.8 -32.56,-17.78 -43,-32.59 7.26,7.95 15.38,15.34 25.18,20.01 12.67,6.07 27.55,9.1 41.28,4.98 -9.52,-1.07 -19.27,-0.79 -28.53,-3.55 -15.63,-4.22 -28.92,-14.74 -38.48,-27.59 -9.03,-11.91 -18.94,-24.17 -32.94,-30.37 -8.54,-3.82 -19.18,-3.96 -27.16,1.28 -5.06,3.25 -8.3,9.09 -8.29,15.11 -0.35,7.78 3.78,14.9 8.79,20.52 7.17,8 16.73,13.38 26.57,17.42 C -36.05,-6.31 -18.08,-2.31 0,0" /></g><g
           transform="translate(535.54,400.8799)"
           id="g28"><path
             id="path30"
             style="fill:#f69522;fill-opacity:1;fill-rule:nonzero;stroke:none"
             d="M 0,0 C 2.73,4 5.56,7.94 8.74,11.61 7.46,6.89 5.53,2.33 2.76,-1.71 -8.53,-18.37 -21.55,-33.9 -36.33,-47.57 c -8.63,-7.83 -17.63,-15.38 -27.76,-21.2 -10.3,-6.42 -21.91,-12.6 -34.45,-11.54 -8.3,0.48 -16.74,5.42 -19.53,13.55 -3.39,8.96 0.84,19.12 7.76,25.15 8.12,7.13 19.34,8.6 29.66,9.93 17.98,2.17 37.1,2.11 53.38,11.09 6.69,3.45 11.76,9.13 16.23,15.05 -6.14,-12.14 -13.7,-23.5 -21.92,-34.32 C -20.63,-27.77 -9.68,-14.29 0,0" /></g><g
           transform="translate(641.2598,334.23)"
           id="g32"><path
             id="path34"
             style="fill:#007e3e;fill-opacity:1;fill-rule:nonzero;stroke:none"
             d="m 0,0 c 9.58,0.05 19.16,0.01 28.74,0.02 -9.92,-48.74 -19.72,-97.5 -29.57,-146.25 -9.57,0 -19.14,-0.01 -28.71,0 C -19.65,-97.49 -9.83,-48.74 0,0" /></g><g
           transform="translate(200.1401,314.9702)"
           id="g36"><path
             id="path38"
             style="fill:#007e3e;fill-opacity:1;fill-rule:nonzero;stroke:none"
             d="m 0,0 c 19.24,4.12 39.23,1.78 58.21,-2.64 -1.17,-6.95 -2.67,-13.85 -3.88,-20.8 -14.44,5.47 -30.14,10.03 -45.67,7.09 -13.59,-2.66 -24.73,-12.44 -31.57,-24.16 -7.34,-12.28 -11.99,-26.51 -11.42,-40.92 0.44,-8.98 3.85,-18.5 11.44,-23.85 7.96,-5.74 18.31,-6.72 27.81,-5.56 11.96,1.46 23.59,4.8 35.06,8.39 -1.18,-6.55 -2.59,-13.06 -3.85,-19.6 -16.62,-5 -33.85,-8.61 -51.28,-8.41 -11.96,0.3 -24.3,3.55 -33.65,11.3 -9.54,7.98 -14.04,20.56 -14.69,32.71 -1.08,21.14 6.86,42.09 19.93,58.51 11,13.65 26.23,24.31 43.56,27.94" /></g><g
           transform="translate(288.5298,271.9702)"
           id="g40"><path
             id="path42"
             style="fill:#007e3e;fill-opacity:1;fill-rule:nonzero;stroke:none"
             d="m 0,0 c -9.17,-6.82 -13.87,-17.77 -16.65,-28.52 9.57,0.03 19.83,1.37 27.67,7.34 5.17,4.09 10.01,9.81 10.06,16.75 0.17,4.33 -3.05,8.81 -7.53,9.18 C 8.54,5.45 3.82,2.99 0,0 m -6.36,17.39 c 10.9,5.79 23.72,8.09 35.91,5.96 8.2,-1.48 15.77,-7.48 17.8,-15.76 2.41,-10.76 -1.7,-22.03 -8.68,-30.25 -14.26,-16.27 -36.56,-22.75 -57.54,-23.92 0.56,-5.49 1.37,-11.66 5.79,-15.5 5.06,-4.27 12.03,-5.55 18.47,-4.7 15.16,1.98 29.63,7.7 42.81,15.33 -1.48,-7.47 -3.02,-14.93 -4.46,-22.42 -14.44,-7 -30.24,-11.05 -46.23,-12.24 -11.52,-0.89 -23.87,1.17 -33.12,8.5 -7.56,5.94 -11.06,15.68 -11.62,25.03 -0.38,11.28 2.25,22.56 6.95,32.78 7.05,15.49 18.62,29.35 33.92,37.19" /></g><g
           transform="translate(404.46,285.0098)"
           id="g44"><path
             id="path46"
             style="fill:#007e3e;fill-opacity:1;fill-rule:nonzero;stroke:none"
             d="m 0,0 c 5.43,4.62 11.51,8.87 18.56,10.51 4.42,1.09 9.02,0.51 13.37,-0.64 -1.93,-6.54 -8.281,-24.895 -9.28,-26.99 -3.17,1.46 -6.74,2.43 -10.21,1.56 -7.78,-1.6 -13.76,-7.34 -18.97,-12.98 -8.66,-9.81 -16.38,-20.43 -23.55,-31.37 -0.84,-1.22 -1.42,-2.59 -1.7,-4.05 -2.28,-11 -4.43,-22.04 -6.66,-33.06 -9.56,0.02 -19.12,-0.04 -28.68,0.04 7.07,35.24 13.98,70.5 21.11,105.73 9.54,-0.02 19.08,-0.01 28.62,-0.01 -2.72,-14.22 -5.7,-28.39 -8.38,-42.62 C -19,-21.37 -10.88,-9.32 0,0" /></g><g
           transform="translate(462.8198,292.9102)"
           id="g48"><path
             id="path50"
             style="fill:#007e3e;fill-opacity:1;fill-rule:nonzero;stroke:none"
             d="M 0,0 C 14.54,5.28 30.63,3.44 44.97,-1.6 43.64,-8.38 42.3,-15.16 40.97,-21.95 32.29,-18 23,-13.8 13.22,-15.1 2.44,-16.6 -6.34,-24.55 -11.51,-33.78 c -6.19,-11.11 -9.96,-23.94 -8.92,-36.74 0.45,-5.16 2.86,-10.46 7.57,-13.03 7.1,-4.32 15.87,-2.53 23.42,-0.51 7.73,2.08 15.28,4.9 22.18,8.99 -1.61,-7.62 -2.95,-15.3 -4.57,-22.92 -14.86,-6.09 -30.9,-10.22 -47.07,-9.01 -9.97,0.8 -19.77,5.59 -25.84,13.65 -4.23,5.72 -6.24,12.86 -6.34,19.91 -0.47,13.62 3.48,27.15 10.23,38.91 1.61,2.86 6.33,9.41 6.98,9.89 C -25.59,-13.15 -13.25,-4.78 0,0" /></g><g
           transform="translate(545.8398,261.6602)"
           id="g52"><path
             id="path54"
             style="fill:#007e3e;fill-opacity:1;fill-rule:nonzero;stroke:none"
             d="m 0,0 c -5.45,-8.51 -9.31,-17.94 -12.33,-27.55 -1.55,-5.39 -2.9,-11 -2.43,-16.64 0.33,-2.39 1.42,-5.28 4.05,-5.9 2.99,-0.52 5.84,0.97 8.32,2.48 4.95,3.28 9.03,7.67 13.02,12.02 C 23.04,-21.57 32.84,-5.03 38,13.03 31.96,16.01 24.85,17.56 18.29,15.41 10.55,12.73 4.33,6.82 0,0 m 17.02,33.51 c 17.84,3.41 37.75,-2.52 49.5,-16.71 -5.7,-30.16 -11.47,-60.3 -17.17,-90.46 -9.57,-0.01 -19.14,0 -28.72,-0.01 2.8,14.27 5.8,28.5 8.49,42.78 -7.44,-13.9 -17.02,-26.94 -29.52,-36.7 -7.66,-5.92 -17.7,-10.24 -27.48,-7.62 -7.53,2.05 -12.31,9.04 -14.83,16.02 -2.89,8.38 -1.33,17.45 0.51,25.89 3.88,15.14 11.53,29.17 21.08,41.47 9.61,12.12 22.87,21.92 38.14,25.34" /></g><g
           transform="translate(395.8101,131.6299)"
           id="g56"><path
             id="path58"
             style="fill:#007e3e;fill-opacity:1;fill-rule:nonzero;stroke:none"
             d="m 0,0 c -4.13,-3.21 -7.34,-7.41 -10.53,-11.52 -2.34,-2.69 -2.36,-6.42 -3.13,-9.73 2.6,-0.49 5.46,-1.21 7.96,0.05 5.87,2.8 9.02,9.1 10.53,15.13 0.33,2.15 1.21,4.69 -0.19,6.63 C 3.38,2.34 1.34,0.83 0,0 m -20.64,-25.55 c 3.2,15.55 6.12,31.15 9.33,46.69 2.02,-0.01 4.05,-0.02 6.08,-0.04 -1.78,-8.94 -3.48,-17.9 -5.36,-26.82 3.18,4.74 6.82,9.57 12.11,12.08 2.54,1.13 6.14,1.53 8.13,-0.84 3,-3.47 2.25,-8.51 1.25,-12.6 -2.36,-7.6 -7.16,-15.19 -14.81,-18.28 -5.39,-2.31 -11.15,0.18 -16.73,-0.19" /></g><g
           transform="translate(486.29,133.21)"
           id="g60"><path
             id="path62"
             style="fill:#007e3e;fill-opacity:1;fill-rule:nonzero;stroke:none"
             d="m 0,0 c -6.54,-3.81 -9.61,-11.67 -10.26,-18.89 -0.26,-2.02 1.86,-4.44 3.8,-2.77 5.07,2.77 8.35,7.78 11.93,12.15 2.48,2.7 2.49,6.52 3.3,9.89 C 5.89,1.29 2.67,1.7 0,0 m 9.65,5.14 c 0.97,4.81 1.92,9.61 2.89,14.41 2.02,0 4.03,-0.01 6.06,-0.03 -3.02,-15.58 -6.17,-31.14 -9.2,-46.73 -2.06,0 -4.11,0 -6.16,-0.02 0.8,4.06 1.58,8.12 2.47,12.16 -3.15,-4.66 -6.75,-9.35 -11.86,-11.96 -2.67,-1.29 -6.55,-1.68 -8.53,0.98 -2.57,3.09 -2.07,7.45 -1.37,11.11 1.89,7.35 6.15,14.45 12.76,18.44 3.87,2.35 8.6,2.52 12.94,1.64" /></g><g
           transform="translate(220.9702,144.7402)"
           id="g64"><path
             id="path66"
             style="fill:#007e3e;fill-opacity:1;fill-rule:nonzero;stroke:none"
             d="m 0,0 c -2.29,-11.33 -4.48,-22.68 -6.75,-34.02 6.13,0.11 12.96,-0.54 18.23,3.23 5.75,4.35 8.67,11.63 9.19,18.66 0.41,4.06 -1.11,8.74 -5.03,10.55 C 10.76,0.7 5.2,-0.13 0,0 m -14.16,-38.75 c 2.81,14.61 5.87,29.16 8.66,43.76 7.79,-0.26 15.68,0.66 23.39,-0.71 5.43,-1.03 9.04,-6.34 9.45,-11.63 1.18,-10.68 -3.64,-22.29 -12.85,-28.12 -8.68,-5.12 -19.11,-2.75 -28.65,-3.3" /></g><g
           transform="translate(260.4702,143.7402)"
           id="g68"><path
             id="path70"
             style="fill:#007e3e;fill-opacity:1;fill-rule:nonzero;stroke:none"
             d="m 0,0 c 0.41,2 0.79,4.01 1.19,6.01 2.06,0 4.11,0.01 6.16,0 C 6.95,4.01 6.55,2.01 6.17,0 4.11,0.01 2.05,0.01 0,0" /></g><g
           transform="translate(365.2798,149.75)"
           id="g72"><path
             id="path74"
             style="fill:#007e3e;fill-opacity:1;fill-rule:nonzero;stroke:none"
             d="M 0,0 C 2.04,0.01 4.08,0.01 6.12,0 5.72,-2.01 5.34,-4.02 4.91,-6.02 2.86,-6 0.82,-5.99 -1.22,-5.98 -0.81,-3.98 -0.4,-1.99 0,0" /></g><g
           transform="translate(460.46,149.7598)"
           id="g76"><path
             id="path78"
             style="fill:#007e3e;fill-opacity:1;fill-rule:nonzero;stroke:none"
             d="M 0,0 C 2.02,0 4.04,0 6.07,-0.02 5.66,-2.01 5.26,-4.01 4.86,-6.02 2.8,-6.01 0.75,-6 -1.3,-6 c 0.43,2 0.85,4.01 1.3,6" /></g><g
           transform="translate(311.1499,144)"
           id="g80"><path
             id="path82"
             style="fill:#007e3e;fill-opacity:1;fill-rule:nonzero;stroke:none"
             d="M 0,0 C 2.07,0.22 4.13,0.44 6.2,0.66 5.77,-1.48 5.35,-3.62 4.94,-5.77 c 2.72,0.03 5.44,0.03 8.16,0.03 -0.36,-1.59 -0.71,-3.18 -1.06,-4.77 -2.7,0.01 -5.4,0.01 -8.1,0.01 -1.05,-7.02 -3.11,-13.88 -3.83,-20.94 0.3,-3.6 5.01,-2.73 7.46,-2.41 -0.35,-1.53 -0.7,-3.07 -1.05,-4.61 -3.63,-0.4 -7.92,-0.86 -10.75,1.96 -2.52,2.49 -1.67,6.34 -1.21,9.45 1.09,5.52 2.2,11.03 3.33,16.54 -1.61,0.01 -3.22,0.01 -4.83,0.01 0.32,1.59 0.65,3.18 0.97,4.76 1.59,0 3.18,0 4.78,-0.01 C -0.8,-3.83 -0.4,-1.91 0,0" /></g><g
           transform="translate(259.3701,138.2598)"
           id="g84"><path
             id="path86"
             style="fill:#007e3e;fill-opacity:1;fill-rule:nonzero;stroke:none"
             d="M 0,0 H 6.16 C 3.99,-10.75 1.87,-21.51 -0.3,-32.26 c -2.03,0 -4.06,0 -6.08,-0.01 C -4.34,-21.5 -2.12,-10.76 0,0" /></g><g
           transform="translate(276.5098,127.6001)"
           id="g88"><path
             id="path90"
             style="fill:#007e3e;fill-opacity:1;fill-rule:nonzero;stroke:none"
             d="m 0,0 c -1.66,5.05 2.49,10.43 7.55,11.03 4.06,0.52 8.59,0.29 12.18,-1.84 C 19.53,7.53 19.19,5.89 18.88,4.24 15.49,5.7 11.74,7.49 7.99,6.29 5.84,5.66 4.91,2.62 6.43,0.93 c 2.81,-3.81 7.11,-6.48 9.14,-10.87 1.86,-4.08 -0.06,-9.4 -4.25,-11.15 -5.42,-2.31 -11.88,-1.43 -17.07,1.09 -0.61,1.57 0.5,3.56 0.55,5.25 3.69,-1.48 7.52,-3.49 11.62,-2.97 2.6,0.24 4.85,3.38 3.21,5.73 C 6.88,-7.63 1.88,-4.94 0,0" /></g><g
           transform="translate(332.98,138.25)"
           id="g92"><path
             id="path94"
             style="fill:#007e3e;fill-opacity:1;fill-rule:nonzero;stroke:none"
             d="M 0,0 C 2.02,0.01 4.05,0.01 6.08,0.02 5.31,-3.97 4.5,-7.95 3.75,-11.95 8.11,-6.25 13.04,1.39 21.26,0.71 20.85,-1.47 20.42,-3.65 19.98,-5.83 17.49,-5.6 14.8,-5.73 12.92,-7.62 8.86,-11.28 5.7,-15.85 2.55,-20.3 0.78,-24.02 0.7,-28.29 -0.29,-32.25 c -2.06,0 -4.11,0 -6.16,-0.02 C -4.32,-21.51 -2.16,-10.75 0,0" /></g><g
           transform="translate(362.98,138.25)"
           id="g96"><path
             id="path98"
             style="fill:#007e3e;fill-opacity:1;fill-rule:nonzero;stroke:none"
             d="m 0,0 c 2.04,0.01 4.08,0.01 6.13,0 -2.11,-10.76 -4.3,-21.5 -6.44,-32.25 -2.05,0 -4.1,0 -6.15,-0.02 2.15,10.76 4.3,21.52 6.46,32.27" /></g><g
           transform="translate(419.0498,138.2598)"
           id="g100"><path
             id="path102"
             style="fill:#007e3e;fill-opacity:1;fill-rule:nonzero;stroke:none"
             d="M 0,0 C 2.06,0 4.11,0 6.18,-0.01 4.85,-6.55 3.58,-13.09 2.23,-19.63 1.78,-21.97 1.08,-24.4 1.75,-26.78 c 2.31,-0.9 4.07,1.33 5.55,2.72 3.31,3.76 6.1,7.97 8.65,12.28 1.37,3.78 1.72,7.86 2.59,11.78 2.05,0 4.1,0 6.15,-0.01 -2.22,-10.74 -4.22,-21.52 -6.42,-32.26 -2.05,0.01 -4.1,0.02 -6.14,0.01 0.77,3.94 1.56,7.88 2.38,11.81 -2.92,-4.28 -5.67,-9.09 -10.38,-11.63 -2.55,-1.38 -6.56,-1.64 -8.21,1.19 -1.21,2.47 -0.75,5.36 -0.43,7.98 C -3.03,-15.27 -1.39,-7.66 0,0" /></g><g
           transform="translate(458.0601,138.2598)"
           id="g104"><path
             id="path106"
             style="fill:#007e3e;fill-opacity:1;fill-rule:nonzero;stroke:none"
             d="M 0,0 C 2.06,0 4.11,0 6.18,-0.01 4.11,-10.77 1.9,-21.51 -0.23,-32.26 H -6.39 C -4.27,-21.51 -2.01,-10.78 0,0" /></g><g
           transform="translate(523.4302,133.9199)"
           id="g108"><path
             id="path110"
             style="fill:#007e3e;fill-opacity:1;fill-rule:nonzero;stroke:none"
             d="m 0,0 c -4.25,-1.43 -6.64,-5.7 -8.14,-9.66 -1.15,-3.74 -1.71,-8.02 -0.19,-11.73 1.84,-3.69 7.03,-3.3 9.76,-0.87 5.23,4.46 7.39,12.03 6.03,18.68 C 6.8,-0.27 2.95,1.17 0,0 m -1.2,4.37 c 4.12,0.92 9.25,1.19 12.53,-1.97 3.02,-3.11 3.41,-7.78 2.8,-11.87 -0.93,-5.8 -3.71,-11.41 -8.12,-15.36 -4.19,-3.85 -10.55,-4.8 -15.87,-3.12 -5.19,2.1 -6.56,8.49 -5.62,13.49 1.26,7.99 6.02,16.51 14.28,18.83" /></g><g
           transform="translate(549.98,138.2402)"
           id="g112"><path
             id="path114"
             style="fill:#007e3e;fill-opacity:1;fill-rule:nonzero;stroke:none"
             d="M 0,0 C 2.02,0.01 4.05,0.02 6.08,0.03 5.33,-3.91 4.55,-7.85 3.82,-11.79 c 4.4,5.62 9.27,13.2 17.45,12.51 -0.42,-2.18 -0.86,-4.36 -1.29,-6.53 -2.48,0.2 -5.18,0.13 -7.03,-1.8 -4.06,-3.71 -7.3,-8.24 -10.43,-12.74 -1.75,-3.7 -1.8,-7.96 -2.81,-11.89 H -6.4 C -4.27,-21.49 -2.2,-10.73 0,0" /></g><g
           transform="translate(590.04,133.5)"
           id="g116"><path
             id="path118"
             style="fill:#007e3e;fill-opacity:1;fill-rule:nonzero;stroke:none"
             d="m 0,0 c -6.55,-3.38 -9.66,-10.93 -10.67,-17.87 -0.58,-1.87 0.66,-3.46 1.49,-5.02 6.31,2.22 10.02,8.1 14.07,13.01 2.51,2.72 2.52,6.6 3.33,10.01 C 5.53,0.89 2.57,1.44 0,0 m -1.92,4.13 c 5.46,2.51 11.44,0.14 17.16,0.58 -2.18,-10.74 -4.22,-21.5 -6.41,-32.24 -2.04,0.02 -4.07,0.03 -6.09,0.03 0.8,4.03 1.59,8.05 2.42,12.06 -3.23,-4.6 -6.75,-9.39 -11.92,-11.93 -2.69,-1.28 -6.66,-1.59 -8.56,1.14 -2.55,3.35 -1.92,7.91 -1.05,11.73 2.21,7.66 6.88,15.33 14.45,18.63" /></g></g></g></g></svg>