<svg id="Layer_1" enable-background="new 0 0 70 70" height="512" viewBox="0 0 70 70" width="512" xmlns="http://www.w3.org/2000/svg"><path d="m54.75 68c2.7568359 0 5-2.2431641 5-5v-56c0-2.7568359-2.2431641-5-5-5h-39.5c-2.7568359 0-5 2.2431641-5 5v56c0 2.7568359 2.2431641 5 5 5zm-42.5-5v-56c0-1.6542969 1.3457031-3 3-3h39.5c1.6542969 0 3 1.3457031 3 3v56c0 1.6542969-1.3457031 3-3 3h-39.5c-1.6542969 0-3-1.3457031-3-3z"/><path d="m18 25.3999023h34c.5522461 0 1-.4477539 1-1v-14.25c0-.5522461-.4477539-1-1-1h-34c-.5522461 0-1 .4477539-1 1v14.25c0 .5522461.4477539 1 1 1zm1-14.25h32v12.25h-32z"/><path d="m19 37.2802734h5.0698242c1.1030273 0 2-.8969727 2-2v-2.8803711c0-1.1030273-.8969727-2-2-2h-5.0698242c-1.1030273 0-2 .8969727-2 2v2.8803711c0 1.1030274.8969727 2 2 2zm0-4.8803711 5.0698242-.0014648v2.8818359h-5.0698242z"/><path d="m37.5317383 30.3999023h-5.0698242c-1.1030273 0-2 .8969727-2 2v2.8803711c0 1.1030273.8969727 2 2 2h5.0698242c1.1030273 0 2-.8969727 2-2v-2.8803711c0-1.1030273-.8969727-2-2-2zm0 4.8803711h-5.0698242v-2.8803711l5.0698242-.0014648z"/><path d="m50.9936523 30.3999023h-5.0703125c-1.1030273 0-2 .8969727-2 2v2.8803711c0 1.1030273.8969727 2 2 2h5.0703125c1.1030273 0 2-.8969727 2-2v-2.8803711c0-1.1030273-.8969726-2-2-2zm0 4.8803711h-5.0703125v-2.8803711l5.0703125-.0014648z"/><path d="m19 49.1601562h5.0698242c1.1030273 0 2-.8969727 2-2v-2.8798828c0-1.1030273-.8969727-2-2-2h-5.0698242c-1.1030273 0-2 .8969727-2 2v2.8798828c0 1.1030274.8969727 2 2 2zm0-4.8798828 5.0698242-.0014648v2.8813477h-5.0698242z"/><path d="m37.5317383 42.2802734h-5.0698242c-1.1030273 0-2 .8969727-2 2v2.8798828c0 1.1030273.8969727 2 2 2h5.0698242c1.1030273 0 2-.8969727 2-2v-2.8798828c0-1.1030273-.8969727-2-2-2zm0 4.8798828h-5.0698242v-2.8798828l5.0698242-.0014648z"/><path d="m50.9936523 42.2802734h-5.0703125c-1.1030273 0-2 .8969727-2 2v2.8798828c0 1.1030273.8969727 2 2 2h5.0703125c1.1030273 0 2-.8969727 2-2v-2.8798828c0-1.1030273-.8969726-2-2-2zm0 4.8798828h-5.0703125v-2.8798828l5.0703125-.0014648z"/><path d="m19 61.0400391h5.0698242c1.1030273 0 2-.8969727 2-2v-2.8798828c0-1.1030273-.8969727-2-2-2h-5.0698242c-1.1030273 0-2 .8969727-2 2v2.8798828c0 1.1030273.8969727 2 2 2zm0-4.8798829 5.0698242-.0014648v2.8813477h-5.0698242z"/><path d="m37.5317383 54.1601562h-5.0698242c-1.1030273 0-2 .8969727-2 2v2.8798828c0 1.1030273.8969727 2 2 2h5.0698242c1.1030273 0 2-.8969727 2-2v-2.8798828c0-1.1030273-.8969727-2-2-2zm0 4.8798829h-5.0698242v-2.8798828l5.0698242-.0014648z"/><path d="m50.9936523 54.1601562h-5.0703125c-1.1030273 0-2 .8969727-2 2v2.8798828c0 1.1030273.8969727 2 2 2h5.0703125c1.1030273 0 2-.8969727 2-2v-2.8798828c0-1.1030273-.8969726-2-2-2zm0 4.8798829h-5.0703125v-2.8798828l5.0703125-.0014648z"/></svg>